<?xml version="1.0" encoding="UTF-8"?>
<svg xmlns="http://www.w3.org/2000/svg" version="1.1" viewBox="0 0 810 810.1">
  <defs>
    <style>
      .cls-1 {
        fill: none;
      }

      .cls-2 {
        fill: #f63c4c;
      }

      .cls-3 {
        fill: #f6dee0;
      }
    </style>
  </defs>
  <!-- Generator: Adobe Illustrator 28.6.0, SVG Export Plug-In . SVG Version: 1.2.0 Build 709)  -->
  <g>
    <g id="Layer_1">
      <g id="Layer_1-2" data-name="Layer_1">
        <path class="cls-1" d="M508.7,393.4c-27.2-9.8-34.6-13.9-36.6-20.5-2.8-9.3,9.3-15.6,29.9-15.6s20.8,1.3,36.3,4.8c5.9,1.4,11,2.5,11.2,2.5.8,0,.6-21.1-.2-21.6-.4-.2-5.2-1.2-10.8-2.1-11.6-2-42.2-2.9-54-1.6-26.5,2.8-44.7,11.3-51.5,24.2-3.1,5.8-3.1,15.3-.2,21.3,2.9,5.7,9.1,11.6,17.5,16.5,6.3,3.8,13.1,6.6,46.6,19.8,15.6,6.1,22,11.1,22,17.6s-5.7,12.7-15.6,14.9c-13.9,3.2-49.3.3-68.4-5.6-2.2-.7-4.2-1.3-4.3-1.3-.2,0-.2,5.3-.2,11.8v11.7l4.3.6c25.9,3.3,61.3,4,78.5,1.8,25.2-3.4,42.2-12.1,48.4-24.7,1.7-3.4,2-5.3,2-11.1s-.3-7.6-2.3-11.6c-5.9-12.1-17.8-19.2-52.6-31.8h0Z"/>
        <path class="cls-1" d="M404,360c-16.2-12.9-34.3-18.6-65-20.7-6.3-.4-29.8-.8-52.2-.8h-40.8v135.3h47c48.3,0,58.3-.5,73.5-3.7,28.6-5.9,49.8-22.6,57.1-45.1,2.9-8.9,3.5-22.1,1.5-31.3-2.8-12.9-10.6-25.3-21.1-33.6ZM341.1,451.7c-6.1,1.6-9.8,1.8-28.9,2.1l-22,.4v-96.1h18c19.5,0,27.9,1,38.7,4.6,11.6,3.8,22.6,12.2,27.3,20.9,3,5.4,5.4,15.5,5.4,22.4,0,23.4-13.4,39.3-38.5,45.7h0Z"/>
        <path class="cls-2" d="M737,405.1c0-195.9,0-201.7-1.6-210.9-5.2-30.7-18.7-57.1-40.2-78.7-22.1-22.1-49.3-35.8-80.7-40.7-10.5-1.6-409.6-1.6-419.7,0-30.8,4.9-58,18.7-79.9,40.6-21.9,21.9-35,47.9-40.2,78.7-1.6,9.2-1.6,15-1.6,210.9s-.2,207.6,4.1,224.4c14.4,56.6,60.3,98,118.5,107,11,1.6,407.9,1.6,418.9,0,28.8-4.4,52.7-15.7,74.8-35.1,21.1-18.5,36.5-43.9,43.7-71.9,4.3-16.8,4.1-7.4,4.1-224.4Z"/>
        <path class="cls-3" d="M423.6,425c-7.4,22.5-28.5,39.2-57.1,45.1-15.2,3.2-25.2,3.7-73.5,3.7h-47v-135.3h40.8c22.4,0,45.9.4,52.2.8,30.7,2.1,48.8,7.9,65,20.7,10.5,8.3,18.3,20.7,21.1,33.6,2,9.2,1.4,22.5-1.5,31.3Z"/>
        <path class="cls-3" d="M561.6,447.9c-6.1,12.6-23.2,21.3-48.4,24.7-17.1,2.2-52.5,1.5-78.5-1.8l-4.3-.6v-11.7c0-6.5,0-11.8.2-11.8s2,.6,4.3,1.3c19.2,5.9,54.5,8.8,68.4,5.6,9.9-2.2,15.6-7.6,15.6-14.9s-6.4-11.6-22-17.6c-33.5-13.1-40.3-16-46.6-19.8-8.4-4.9-14.6-10.8-17.5-16.5-3-6-3-15.5.2-21.3,6.8-12.9,25-21.4,51.5-24.2,11.8-1.2,42.4-.3,54,1.6,5.6.9,10.4,1.9,10.8,2.1.8.5,1.1,21.6.2,21.6s-5.3-1.1-11.2-2.5c-15.5-3.5-25-4.8-36.3-4.8-20.6,0-32.7,6.3-29.9,15.6,2,6.6,9.3,10.7,36.6,20.5,34.8,12.6,46.7,19.8,52.6,31.8,2,4,2.3,5.7,2.3,11.6s-.3,7.7-2,11.1h0Z"/>
        <path class="cls-2" d="M346.9,362.8c-10.8-3.6-19.2-4.6-38.7-4.6h-18v96.1l22-.4c19-.3,22.8-.6,28.9-2.1,25.1-6.4,38.4-22.3,38.5-45.7,0-6.9-2.4-17-5.4-22.4-4.7-8.7-15.7-17.1-27.3-20.9h0Z"/>
      </g>
    </g>
  </g>
</svg>